<svg width="32" height="32" viewBox="0 0 32 32" fill="none" xmlns="http://www.w3.org/2000/svg">
<g clip-path="url(#clip0_3996_22761)">
<path d="M4.30006 -1.62572e-05C3.73426 -0.00399313 3.17332 0.104167 2.64983 0.31818C2.12633 0.532192 1.65072 0.847788 1.25063 1.24663C0.850555 1.64547 0.533974 2.1196 0.319294 2.64147C0.104615 3.16333 -0.00388312 3.72253 0.000106142 4.28656V27.6135C0.00487903 28.7582 0.456346 29.8562 1.25892 30.6748C2.0615 31.4936 3.15218 31.9687 4.30006 31.9998H27.6998C28.2655 32.0038 28.8265 31.8956 29.35 31.6816C29.8735 31.4675 30.3491 31.152 30.7492 30.7532C31.1492 30.3543 31.4658 29.8802 31.6805 29.3583C31.8952 28.8365 32.0037 28.2772 31.9997 27.7132V4.28656C32.0063 3.73018 31.9029 3.17794 31.6954 2.6614C31.4879 2.14485 31.1804 1.67411 30.7904 1.27605C30.4003 0.878001 29.9355 0.560432 29.4224 0.341483C28.9092 0.122532 28.3578 0.00649097 27.7998 -1.62572e-05H4.30006Z" fill="#1D1D1D"/>
<g opacity="0.05">
<path d="M8.60865 16.0873C8.57924 16.1143 8.54851 16.1439 8.51641 16.1763C7.68273 17.0177 2.03224 24.683 4.71854 27.3005C6.57546 29.1098 11.1323 27.2564 15.8803 23.5001C18.2333 25.5999 24.7769 29.6805 27.228 27.207C29.4204 24.9945 26.559 19.765 23.4484 15.9893C26.5589 12.2136 29.4202 6.98424 27.2278 4.77176C24.7544 2.27563 18.1134 6.45388 15.8168 8.53561C11.0918 4.85273 6.5673 2.99966 4.71868 4.86522C2.03238 7.57615 7.77551 15.148 8.51655 15.9893C8.54809 16.0252 8.57879 16.0577 8.60865 16.0873ZM8.14567 8.32406C8.14938 8.17833 8.15264 8.03813 8.15541 7.9033C9.51071 8.12741 11.4341 9.35004 13.3967 10.8825C12.3683 11.8719 11.2746 12.9254 10.5543 13.6524C10.5543 13.6991 10.5776 13.7461 10.6007 13.7928C9.14216 11.8618 8.10488 9.92974 8.14567 8.32406ZM10.5426 18.2207C11.009 18.6908 12.3384 20.0289 13.5626 21.2463C11.4416 22.9192 9.34897 24.2536 7.95036 24.3825C7.73484 23.9097 8.28569 21.1248 10.5426 18.2207ZM24.2163 24.1436C23.6765 24.3298 20.9652 23.7559 18.1396 21.5802C19.2268 20.5917 20.3032 19.5181 21.3385 18.3803C22.8941 20.3007 24.4237 22.5141 24.2163 24.1436ZM21.4723 13.7641C20.4556 12.6637 19.3977 11.6183 18.3277 10.6498C20.2645 9.15938 22.1969 8.09549 23.8006 8.13699C23.9745 8.14149 24.1405 8.14534 24.2988 8.14848C24.6511 9.84835 23.0655 11.9006 21.4723 13.7641ZM15.7567 12.8436C17.0774 13.9997 18.3146 15.1711 19.2931 16.1295C18.3135 17.0891 17.0745 18.2621 15.7521 19.4195C14.7138 18.4122 13.5703 17.2666 12.4924 16.0677C13.4737 15.0547 14.5879 13.9252 15.7567 12.8436Z" fill="white"/>
</g>
<path d="M7.99993 22C7.99993 22.5523 8.44765 23 8.99993 23H22.9999C23.5522 23 23.9999 22.5523 23.9999 22V13C23.9999 12.4477 23.5522 12 22.9999 12H19.573C19.5655 11.943 19.5559 11.8803 19.5436 11.8129C19.4889 11.512 19.3785 11.1029 19.1519 10.6876C18.9236 10.2689 18.5746 9.83975 18.0474 9.5176C17.5189 9.19461 16.845 8.99988 16.0002 8.99988C15.1553 8.99988 14.4814 9.19461 13.9529 9.5176C13.4258 9.83975 13.0768 10.2689 12.8484 10.6876C12.6219 11.1029 12.5114 11.512 12.4567 11.8129C12.4445 11.8803 12.4349 11.943 12.4274 12H11.6249L10.7249 13.2H22.7999V16H16.4999V15H15.4999V16H10.4999V17H15.4999V18.25H16.4999V17H22.7999V21.8H9.19993V18.4866C8.90623 18.5261 8.60259 18.4784 8.32911 18.3416L7.99993 18.1771V22ZM18.3578 12H13.6425C13.683 11.7893 13.7597 11.5229 13.9019 11.2622C14.0486 10.9934 14.2621 10.735 14.5787 10.5415C14.8939 10.3489 15.345 10.1999 16.0002 10.1999C16.6553 10.1999 17.1064 10.3489 17.4217 10.5415C17.7383 10.735 17.9518 10.9934 18.0984 11.2622C18.2406 11.5229 18.3173 11.7893 18.3578 12Z" fill="white"/>
<path d="M6.99993 16L8.99993 17V13.6667C8.99993 13.2339 9.14029 12.8129 9.39993 12.4667L11.3999 9.8C11.6471 9.47038 11.412 9 10.9999 9H4.99993C4.58791 9 4.35272 9.47038 4.59993 9.8L6.59993 12.4667C6.85958 12.8129 6.99993 13.2339 6.99993 13.6667V16Z" fill="white"/>
</g>
<defs>
<clipPath id="clip0_3996_22761">
<rect width="32" height="32" fill="white"/>
</clipPath>
</defs>
</svg>
