<svg width="32" height="32" viewBox="0 0 32 32" fill="none" xmlns="http://www.w3.org/2000/svg">
<g clip-path="url(#clip0_4059_11795)">
<path d="M4.30006 -1.62572e-05C3.73426 -0.00399313 3.17332 0.104167 2.64983 0.31818C2.12633 0.532192 1.65072 0.847788 1.25063 1.24663C0.850555 1.64547 0.533974 2.1196 0.319294 2.64147C0.104615 3.16333 -0.00388312 3.72253 0.000106142 4.28656V27.6135C0.00487903 28.7582 0.456346 29.8562 1.25892 30.6748C2.0615 31.4936 3.15218 31.9687 4.30006 31.9998H27.6998C28.2655 32.0038 28.8265 31.8956 29.35 31.6816C29.8735 31.4675 30.3491 31.152 30.7492 30.7532C31.1492 30.3543 31.4658 29.8802 31.6805 29.3583C31.8952 28.8365 32.0037 28.2772 31.9997 27.7132V4.28656C32.0063 3.73018 31.9029 3.17794 31.6954 2.6614C31.4879 2.14485 31.1804 1.67411 30.7904 1.27605C30.4003 0.878001 29.9355 0.560432 29.4224 0.341483C28.9092 0.122532 28.3578 0.00649097 27.7998 -1.62572e-05H4.30006Z" fill="#1D1D1D"/>
<g opacity="0.05">
<path d="M8.60865 16.0873C8.57924 16.1143 8.54851 16.1439 8.51641 16.1763C7.68273 17.0177 2.03224 24.683 4.71854 27.3005C6.57546 29.1098 11.1323 27.2564 15.8803 23.5001C18.2333 25.5999 24.7769 29.6805 27.228 27.207C29.4204 24.9945 26.559 19.765 23.4484 15.9893C26.5589 12.2136 29.4202 6.98424 27.2278 4.77176C24.7544 2.27563 18.1134 6.45388 15.8168 8.53561C11.0918 4.85273 6.5673 2.99966 4.71868 4.86522C2.03238 7.57615 7.77551 15.148 8.51655 15.9893C8.54809 16.0252 8.57879 16.0577 8.60865 16.0873ZM8.14567 8.32406C8.14938 8.17833 8.15264 8.03813 8.15541 7.9033C9.51071 8.12741 11.4341 9.35004 13.3967 10.8825C12.3683 11.8719 11.2746 12.9254 10.5543 13.6524C10.5543 13.6991 10.5776 13.7461 10.6007 13.7928C9.14216 11.8618 8.10488 9.92974 8.14567 8.32406ZM10.5426 18.2207C11.009 18.6908 12.3384 20.0289 13.5626 21.2463C11.4416 22.9192 9.34897 24.2536 7.95036 24.3825C7.73484 23.9097 8.28569 21.1248 10.5426 18.2207ZM24.2163 24.1436C23.6765 24.3298 20.9652 23.7559 18.1396 21.5802C19.2268 20.5917 20.3032 19.5181 21.3385 18.3803C22.8941 20.3007 24.4237 22.5141 24.2163 24.1436ZM21.4723 13.7641C20.4556 12.6637 19.3977 11.6183 18.3277 10.6498C20.2645 9.15938 22.1969 8.09549 23.8006 8.13699C23.9745 8.14149 24.1405 8.14534 24.2988 8.14848C24.6511 9.84835 23.0655 11.9006 21.4723 13.7641ZM15.7567 12.8436C17.0774 13.9997 18.3146 15.1711 19.2931 16.1295C18.3135 17.0891 17.0745 18.2621 15.7521 19.4195C14.7138 18.4122 13.5703 17.2666 12.4924 16.0677C13.4737 15.0547 14.5879 13.9252 15.7567 12.8436Z" fill="white"/>
</g>
<path d="M12.4129 6.66521C10.1897 7.51967 8.34395 9.14072 7.20878 11.2345C6.07379 13.3283 5.72439 15.7589 6.22147 18.0881C6.71866 20.417 8.03085 22.4918 9.92167 23.9396C11.8126 25.3874 14.1578 26.114 16.5359 25.9865C18.9142 25.8589 21.1691 24.8862 22.8943 23.2443C24.6195 21.6024 25.702 19.3985 25.9471 17.0295L25.3514 16.967L24.7537 16.9064C24.5379 18.991 23.5852 20.9304 22.0672 22.3752C20.5489 23.82 18.5643 24.675 16.4715 24.7873C14.3787 24.8995 12.3142 24.2616 10.6502 22.9875C8.98619 21.7133 7.83176 19.8858 7.39432 17.8361C6.95721 15.7868 7.26581 13.649 8.26444 11.8068C9.26339 9.96425 10.8871 8.53823 12.8435 7.7863C14.7999 7.03443 16.9605 7.00511 18.9363 7.70427C20.8822 8.39292 22.5208 9.74507 23.5711 11.5197L21.9881 12.4338L25.5974 13.923L26.1131 10.0529L24.6111 10.9191C23.4179 8.89707 21.5519 7.35742 19.3367 6.57341C17.0915 5.77891 14.636 5.81086 12.4129 6.66521Z" fill="white"/>
<path d="M19.9998 21.0002V16.0002H11.9998V21.0002H19.9998Z" fill="white"/>
<path d="M15.9998 10.0002C14.3429 10.0002 12.9998 11.3433 12.9998 13.0002V15.0002H14.2V13.0002C14.2 12.0061 15.0057 11.2004 15.9998 11.2004C16.9939 11.2004 17.7996 12.0061 17.7996 13.0002V15.0002H18.9998V13.0002C18.9998 11.3433 17.6566 10.0002 15.9998 10.0002Z" fill="white"/>
</g>
<defs>
<clipPath id="clip0_4059_11795">
<rect width="32" height="32" fill="white"/>
</clipPath>
</defs>
</svg>
