<svg width="32" height="32" viewBox="0 0 32 32" fill="none" xmlns="http://www.w3.org/2000/svg">
<g clip-path="url(#clip0_4059_11777)">
<path d="M4.30006 -1.62572e-05C3.73426 -0.00399313 3.17332 0.104167 2.64983 0.31818C2.12633 0.532192 1.65072 0.847788 1.25063 1.24663C0.850555 1.64547 0.533974 2.1196 0.319294 2.64147C0.104615 3.16333 -0.00388312 3.72253 0.000106142 4.28656V27.6135C0.00487903 28.7582 0.456346 29.8562 1.25892 30.6748C2.0615 31.4936 3.15218 31.9687 4.30006 31.9998H27.6998C28.2655 32.0038 28.8265 31.8956 29.35 31.6816C29.8735 31.4675 30.3491 31.152 30.7492 30.7532C31.1492 30.3543 31.4658 29.8802 31.6805 29.3583C31.8952 28.8365 32.0037 28.2772 31.9997 27.7132V4.28656C32.0063 3.73018 31.9029 3.17794 31.6954 2.6614C31.4879 2.14485 31.1804 1.67411 30.7904 1.27605C30.4003 0.878001 29.9355 0.560432 29.4224 0.341483C28.9092 0.122532 28.3578 0.00649097 27.7998 -1.62572e-05H4.30006Z" fill="#1D1D1D"/>
<g opacity="0.05">
<path d="M8.60865 16.0873C8.57924 16.1143 8.54851 16.1439 8.51641 16.1763C7.68273 17.0177 2.03224 24.683 4.71854 27.3005C6.57546 29.1098 11.1323 27.2564 15.8803 23.5001C18.2333 25.5999 24.7769 29.6805 27.228 27.207C29.4204 24.9945 26.559 19.765 23.4484 15.9893C26.5589 12.2136 29.4202 6.98424 27.2278 4.77176C24.7544 2.27563 18.1134 6.45388 15.8168 8.53561C11.0918 4.85273 6.5673 2.99966 4.71868 4.86522C2.03238 7.57615 7.77551 15.148 8.51655 15.9893C8.54809 16.0252 8.57879 16.0577 8.60865 16.0873ZM8.14567 8.32406C8.14938 8.17833 8.15264 8.03813 8.15541 7.9033C9.51071 8.12741 11.4341 9.35004 13.3967 10.8825C12.3683 11.8719 11.2746 12.9254 10.5543 13.6524C10.5543 13.6991 10.5776 13.7461 10.6007 13.7928C9.14216 11.8618 8.10488 9.92974 8.14567 8.32406ZM10.5426 18.2207C11.009 18.6908 12.3384 20.0289 13.5626 21.2463C11.4416 22.9192 9.34897 24.2536 7.95036 24.3825C7.73484 23.9097 8.28569 21.1248 10.5426 18.2207ZM24.2163 24.1436C23.6765 24.3298 20.9652 23.7559 18.1396 21.5802C19.2268 20.5917 20.3032 19.5181 21.3385 18.3803C22.8941 20.3007 24.4237 22.5141 24.2163 24.1436ZM21.4723 13.7641C20.4556 12.6637 19.3977 11.6183 18.3277 10.6498C20.2645 9.15938 22.1969 8.09549 23.8006 8.13699C23.9745 8.14149 24.1405 8.14534 24.2988 8.14848C24.6511 9.84835 23.0655 11.9006 21.4723 13.7641ZM15.7567 12.8436C17.0774 13.9997 18.3146 15.1711 19.2931 16.1295C18.3135 17.0891 17.0745 18.2621 15.7521 19.4195C14.7138 18.4122 13.5703 17.2666 12.4924 16.0677C13.4737 15.0547 14.5879 13.9252 15.7567 12.8436Z" fill="white"/>
</g>
<path d="M23.5999 20.4V16.9996H22.4006V20.4H19.0002V21.5992H22.4006V24.9996H23.5999V21.5992H27.0002V20.4H23.5999Z" fill="white"/>
<path d="M14.5002 16.4C11.5345 16.4001 9.74146 17.762 8.70825 19.1393C8.19828 19.8192 7.87616 20.4969 7.68188 21.0035C7.58454 21.2574 7.51835 21.4711 7.47583 21.6237C7.45459 21.6999 7.43933 21.7615 7.42896 21.8053C7.42381 21.827 7.42003 21.8452 7.41724 21.858C7.41591 21.8641 7.41418 21.8697 7.41333 21.8737C7.41297 21.8754 7.41261 21.8773 7.41235 21.8785V21.8815L8.58813 22.1188C8.58828 22.1178 8.58853 22.1156 8.58911 22.1129C8.59046 22.1068 8.5935 22.0961 8.59692 22.0817C8.6039 22.0522 8.61534 22.006 8.63208 21.9459C8.66576 21.8251 8.72074 21.6477 8.80298 21.4332C8.96816 21.0025 9.24081 20.4298 9.66821 19.86C10.5101 18.7376 11.9672 17.5993 14.5002 17.5992C15.8533 17.5992 16.898 17.9263 17.7073 18.4H19.6526C18.57 17.3132 16.9283 16.4 14.5002 16.4Z" fill="white"/>
<path d="M14.5002 7.40002C12.236 7.40006 10.4008 9.23547 10.4006 11.4996C10.4006 13.764 12.2359 15.5992 14.5002 15.5992C16.7646 15.5992 18.5999 13.764 18.5999 11.4996C18.5996 9.23545 16.7645 7.40002 14.5002 7.40002ZM14.5002 8.59924C16.1017 8.59924 17.4004 9.89819 17.4006 11.4996C17.4006 13.1013 16.1019 14.4 14.5002 14.4C12.8987 14.4 11.5999 13.1012 11.5999 11.4996C11.6001 9.89821 12.8988 8.59928 14.5002 8.59924Z" fill="white"/>
</g>
<defs>
<clipPath id="clip0_4059_11777">
<rect width="32" height="32" fill="white"/>
</clipPath>
</defs>
</svg>
