<svg width="1240" height="1020" viewBox="0 0 1240 1020" fill="none" xmlns="http://www.w3.org/2000/svg">
<g clip-path="url(#clip0_28395_14510)">
<g opacity="0.3">
<path d="M1240 579.762V741.82C1222.61 737.028 1203.76 734.632 1183.46 734.632C1125.43 734.632 1079.01 753.406 1044.19 790.952C1010.06 828.499 992.992 879.357 992.992 943.528C992.992 971.464 996.296 996.955 1002.91 1020H820.751C816.112 995.476 813.792 969.985 813.792 943.528C813.792 873.213 830.176 810.067 862.944 754.088C896.395 698.109 941.109 654.419 997.088 623.016C1053.75 591.613 1115.87 575.912 1183.46 575.912C1202.78 575.912 1221.63 577.195 1240 579.762Z" fill="#F1F1F1"/>
<path d="M306.128 0C312.758 28.7259 316.072 58.902 316.072 90.5281C316.072 160.843 299.688 224.331 266.92 280.992C234.152 336.971 189.779 380.661 133.8 412.064C92.3773 435.301 47.7773 449.941 0 455.983V293.538C33.9174 285.214 62.4748 268.061 85.672 242.08C120.488 203.851 137.896 153.333 137.896 90.5281C137.896 56.6612 132.943 26.4852 123.035 0H306.128Z" fill="#F1F1F1"/>
</g>
</g>
<defs>
<clipPath id="clip0_28395_14510">
<rect width="1240" height="1020" fill="white"/>
</clipPath>
</defs>
</svg>
