<svg width="140" height="140" viewBox="0 0 140 140" fill="none" xmlns="http://www.w3.org/2000/svg">
<path d="M7.86836 56.6719C1.90787 52.9182 -0.817532 46.4775 1.79725 42.2875C4.39997 38.1737 11.3924 37.8768 17.4169 41.7187C23.3774 45.4724 26.0908 51.9893 23.4881 56.1031C20.8092 60.2049 13.8288 60.4257 7.86836 56.6719ZM14.8383 45.6803C12.0744 43.9158 8.7806 44.0182 7.54142 45.9289C6.30225 47.8396 7.61898 50.8576 10.3829 52.6221C13.1468 54.3867 16.4406 54.2842 17.6798 52.3735C18.919 50.4628 17.6023 47.4449 14.8383 45.6803Z" fill="#E6E6E6"/>
<path d="M17.2383 46.2946L14.3983 44.518L39.5632 4.88171C40.0765 4.10461 41.1265 3.88076 41.9035 4.39407C42.6806 4.90738 42.9045 5.95734 42.3912 6.73443L17.2383 46.2946Z" fill="#E6E6E6"/>
<path d="M43.1224 10.9863L37.6706 7.46927L39.5234 4.64128L44.9751 8.15831L43.1224 10.9863Z" fill="#E6E6E6"/>
<path d="M39.6867 13.9537L35.7892 11.4633L37.6419 8.63528L41.5394 11.1257L39.6867 13.9537Z" fill="#E6E6E6"/>
<path d="M35.0409 14.1143L33.2228 16.9773L37.5824 19.7459L39.4005 16.8828L35.0409 14.1143Z" fill="#E6E6E6"/>
<path d="M19.1039 41.9079L17.5497 40.8813C16.7726 40.368 16.5367 39.3942 17.05 38.6171C17.5633 37.84 18.5372 37.6041 19.3143 38.1174L20.8684 39.144C21.6455 39.6573 21.8814 40.6312 21.3681 41.4083C20.9309 42.1974 19.881 42.4212 19.1039 41.9079Z" fill="#E6E6E6"/>
<path d="M135.322 83.7853C140.934 88.4646 141.52 96.9732 136.639 102.746C131.769 108.428 123.319 109.297 117.717 104.527C112.105 99.8477 111.518 91.3391 116.4 85.5663C121.27 79.8841 129.709 79.106 135.322 83.7853ZM122.386 99.0051C124.976 101.228 128.964 100.859 131.198 98.178C133.431 95.4973 133.152 91.5199 130.562 89.2967C127.972 87.0736 123.984 87.4432 121.751 90.1239C119.517 92.8046 119.786 96.8726 122.386 99.0051Z" fill="#E6E6E6"/>
<path d="M121.113 97.2996L124.536 100.26L93.0343 138.222C92.1957 139.136 90.7957 139.342 89.8823 138.504C88.9689 137.665 88.7621 136.265 89.6006 135.352L121.113 97.2996Z" fill="#E6E6E6"/>
<path d="M90.8179 126.316L98.0966 132.47L93.5287 137.912L86.2603 131.667C85.1657 130.807 85.0702 129.237 85.9294 128.142L87.3141 126.465C88.1526 125.552 89.7234 125.456 90.8179 126.316Z" fill="#E6E6E6"/>
<path d="M79.6587 12.2323L83.8953 18.0348C84.2732 18.5748 84.9988 18.6719 85.5388 18.294C86.0788 17.9161 86.1759 17.1905 85.798 16.6504L81.5615 10.848C80.1917 8.99961 80.5839 6.32934 82.4866 4.94501L84.5924 3.44798C86.4408 2.07822 89.111 2.47042 90.4954 4.37317L92.243 6.76156L94.1458 5.37723L92.3981 2.98883C90.2726 0.0603998 86.1365 -0.580333 83.2081 1.54523L81.1023 3.04226C78.1341 5.23679 77.5331 9.30387 79.6587 12.2323Z" fill="#F0F0F0"/>
<path d="M80.3164 13.1638C80.4213 12.9025 80.5952 12.681 80.838 12.4993L92.1457 4.22245C92.3886 4.04079 92.7149 3.95334 93.0015 3.93486C93.5202 3.91247 94.0428 4.12224 94.4061 4.60788L102.683 15.9156C103.228 16.6441 103.026 17.631 102.352 18.1614L91.0442 26.4382C90.3157 26.9832 89.3288 26.7813 88.7984 26.1072L80.5215 14.7995C80.1436 14.2594 80.0921 13.632 80.3164 13.1638ZM92.4987 20.3351L96.1158 17.7336L93.0034 14.6032C93.1296 13.9864 93.0091 13.319 92.6312 12.779C91.8899 11.7533 90.4242 11.5048 89.413 12.3004C88.3874 13.0416 88.1388 14.5074 88.9344 15.5185C89.3123 16.0586 89.9185 16.3625 90.5207 16.4344L92.4987 20.3351Z" fill="#E6E6E6"/>
<circle cx="70" cy="70" r="45" fill="#DAE7F2"/>
<path d="M29.6393 55.5978L12.4495 71.6494C6.77691 76.9464 6.17842 85.6786 10.8291 91.7618L27.8492 113.71C32.6007 119.764 41.1681 121.288 47.7328 117.154L67.5689 104.487C75.0527 99.7515 76.765 89.5931 71.3118 82.6504L51.5444 57.3462C46.2929 50.3439 36.0705 49.528 29.6393 55.5978ZM38.8978 99.1459C34.866 102.203 29.1667 101.475 26.1397 97.5443C23.0828 93.5125 23.8104 87.8132 27.7413 84.7862C31.7731 81.7293 37.4723 82.457 40.4994 86.3878C43.6571 90.3897 42.9295 96.089 38.8978 99.1459Z" fill="#2271B1"/>
<path d="M29.6393 55.5978L12.4495 71.6494C6.77691 76.9464 6.17842 85.6786 10.8291 91.7618L27.8492 113.71C32.6007 119.764 41.1681 121.288 47.7328 117.154L67.5689 104.487C75.0527 99.7515 76.765 89.5931 71.3118 82.6504L51.5444 57.3462C46.2929 50.3439 36.0705 49.528 29.6393 55.5978ZM38.8978 99.1459C34.866 102.203 29.1667 101.475 26.1397 97.5443C23.0828 93.5125 23.8104 87.8132 27.7413 84.7862C31.7731 81.7293 37.4723 82.457 40.4994 86.3878C43.6571 90.3897 42.9295 96.089 38.8978 99.1459Z" fill="white" fill-opacity="0.1"/>
<path d="M30.4078 57.4544L14.2495 72.5429C8.92066 77.5189 8.27387 85.717 12.8052 91.3967L28.7728 112.011C33.2033 117.721 41.3076 119.163 47.3978 115.278L66.0419 103.403C73.0513 98.9174 74.64 89.4537 69.5376 82.9557L51.1552 58.9968C46.0528 52.4989 36.4952 51.7057 30.4078 57.4544ZM26.1398 97.5442C23.0829 93.5124 23.8106 87.8132 27.7414 84.7861C31.7732 81.7292 37.4725 82.4569 40.4995 86.3878C43.5564 90.4195 42.9296 96.089 38.8979 99.1458C34.9968 102.274 29.1967 101.576 26.1398 97.5442Z" fill="#2271B1"/>
<path d="M121.757 20.6791L121.45 21.8667L121.326 22.5613L120.925 24.5444L122.582 28.6613C122.641 28.863 122.701 29.0648 122.63 29.1954C122.648 29.6287 122.435 30.0208 122.062 30.241L115.018 35.724C114.645 35.9442 114.241 36.0635 113.879 35.9512C113.748 35.8802 113.647 35.91 113.517 35.839L107.636 32.6424L101.926 37.0729L103.52 39.1243L97.8104 43.5547L100.487 47.041L96.2829 50.2584C95.9093 50.4785 95.5059 50.5978 95.0428 50.5154C94.9121 50.4444 94.8112 50.4742 94.6805 50.4032L91.2116 48.6869L85.5021 53.1174L88.1783 56.6036L82.196 61.2245L84.8722 64.7107C85.2529 65.2562 85.1591 66.0517 84.6434 66.5333L68.3332 79.2537L54.34 61.2358L113.386 15.3671L114.543 15.5732L118.48 16.2737C120.836 16.4542 122.228 18.5653 121.757 20.6791Z" fill="#2271B1"/>
<path d="M121.757 20.6791L121.45 21.8667L121.326 22.5613L120.925 24.5444L122.582 28.6613C122.641 28.863 122.701 29.0648 122.63 29.1954C122.648 29.6287 122.435 30.0208 122.062 30.241L115.018 35.724C114.645 35.9442 114.241 36.0635 113.879 35.9512C113.748 35.8802 113.647 35.91 113.517 35.839L107.636 32.6424L101.926 37.0729L103.52 39.1243L97.8104 43.5547L100.487 47.041L96.2829 50.2584C95.9093 50.4785 95.5059 50.5978 95.0428 50.5154C94.9121 50.4444 94.8112 50.4742 94.6805 50.4032L91.2116 48.6869L85.5021 53.1174L88.1783 56.6036L82.196 61.2245L84.8722 64.7107C85.2529 65.2562 85.1591 66.0517 84.6434 66.5333L68.3332 79.2537L54.34 61.2358L113.386 15.3671L114.543 15.5732L118.48 16.2737C120.836 16.4542 122.228 18.5653 121.757 20.6791Z" fill="white" fill-opacity="0.05"/>
<path d="M120.869 18.419L57.7205 67.4752L54.0514 62.8568L114.259 16.096L118.195 16.7966C119.585 17.0438 120.571 17.4104 120.869 18.419Z" fill="#2271B1"/>
<path d="M120.869 18.419L57.7203 67.4752L54.0512 62.8567L114.259 16.096L118.195 16.7965C119.584 17.0438 120.57 17.4103 120.869 18.419Z" fill="#101010" fill-opacity="0.2"/>
<path d="M120.62 22.7701L120.361 24.4918L120.391 24.5927L122.047 28.7096C122.107 28.9113 122.137 29.0122 122.167 29.1131C122.167 29.1131 122.197 29.2139 122.096 29.2437L114.436 35.2382L114.335 35.268C114.204 35.197 114.103 35.2268 114.073 35.1259L107.67 31.6452C107.67 31.6452 107.539 31.5742 107.468 31.7049L101.213 36.516C101.112 36.5458 101.142 36.6467 101.172 36.7476L102.605 38.6271C102.635 38.7279 102.665 38.8288 102.564 38.8586L97.299 42.9382C97.1981 42.9681 97.2279 43.0689 97.2578 43.1698L99.7436 46.3832C99.7734 46.4841 99.8032 46.585 99.7024 46.6148L95.7715 49.6418L95.6706 49.6717C95.54 49.6006 95.4391 49.6304 95.3084 49.5594L91.2158 47.5889C91.2158 47.5889 91.0851 47.5178 91.0141 47.6485L84.86 52.4299C84.7591 52.4597 84.7889 52.5605 84.8187 52.6614L87.4353 55.9459C87.4651 56.0468 87.4949 56.1476 87.3941 56.1774L63.6966 74.7019C63.5957 74.7318 63.4949 74.7616 63.465 74.6607L58.7434 68.7083C58.7135 68.6074 58.6837 68.5066 58.7845 68.4767L120.539 20.2713C120.61 20.1406 120.872 20.2827 120.801 20.4134L120.62 22.7701Z" fill="#2271B1"/>
<path d="M120.62 22.7701L120.361 24.4918L120.391 24.5927L122.047 28.7096C122.107 28.9113 122.137 29.0122 122.167 29.1131C122.167 29.1131 122.197 29.2139 122.096 29.2437L114.436 35.2382L114.335 35.268C114.204 35.197 114.103 35.2268 114.073 35.1259L107.67 31.6452C107.67 31.6452 107.539 31.5742 107.468 31.7049L101.213 36.516C101.112 36.5458 101.142 36.6467 101.172 36.7476L102.605 38.6271C102.635 38.7279 102.665 38.8288 102.564 38.8586L97.299 42.9382C97.1981 42.9681 97.2279 43.0689 97.2578 43.1698L99.7436 46.3832C99.7734 46.4841 99.8032 46.585 99.7024 46.6148L95.7715 49.6418L95.6706 49.6717C95.54 49.6006 95.4391 49.6304 95.3084 49.5594L91.2158 47.5889C91.2158 47.5889 91.0851 47.5178 91.0141 47.6485L84.86 52.4299C84.7591 52.4597 84.7889 52.5605 84.8187 52.6614L87.4353 55.9459C87.4651 56.0468 87.4949 56.1476 87.3941 56.1774L63.6966 74.7019C63.5957 74.7318 63.4949 74.7616 63.465 74.6607L58.7434 68.7083C58.7135 68.6074 58.6837 68.5066 58.7845 68.4767L120.539 20.2713C120.61 20.1406 120.872 20.2827 120.801 20.4134L120.62 22.7701Z" fill="#101010" fill-opacity="0.2"/>
<path d="M60.9919 110.436L9.86036 72.9089L17.9509 65.0323L70.5385 103.774L60.9919 110.436Z" fill="white" fill-opacity="0.2"/>
<path d="M73.4152 102.375L20.5294 62.6245L23.463 59.5633L76.1997 98.8093L73.4152 102.375Z" fill="white" fill-opacity="0.2"/>
</svg>
