<svg width="40" height="40" viewBox="0 0 33 32" fill="none" xmlns="http://www.w3.org/2000/svg">
<g clip-path="url(#clip0_27666_1579)">
<path fill-rule="evenodd" clip-rule="evenodd" d="M22.2879 8.91391C20.2945 5.3845 16.4953 3 12.1364 3C5.70978 3 0.5 8.18315 0.5 14.5769C0.5 20.2415 4.58927 24.9559 9.99106 25.9575L9.99091 26.7688C9.99091 27.6679 10.7235 28.3968 11.6273 28.3968H21.4455C22.3492 28.3968 23.0818 27.6679 23.0818 26.7688V26.1538L23.7727 26.1538L23.917 26.1526C28.6704 26.076 32.5 22.2185 32.5 17.4711C32.5 12.6758 28.5927 8.78845 23.7727 8.78845C23.2665 8.78845 22.7704 8.83133 22.2879 8.91391ZM13.8631 12.5945C14.0873 12.5269 14.242 12.323 14.246 12.0898C14.2505 11.8567 14.1034 11.6474 13.882 11.5717L7.75597 9.53955C7.56218 9.47521 7.34851 9.52541 7.20406 9.66923C7.0596 9.81305 7.00918 10.0258 7.07381 10.2187L9.11491 16.3178C9.19343 16.5381 9.40606 16.6825 9.64069 16.6749C9.87488 16.6709 10.0797 16.5169 10.1476 16.2937L10.881 13.8616C10.9594 13.6042 11.1617 13.4027 11.4203 13.3247L13.8631 12.5945Z" fill="#0672CD"/>
</g>
<defs>
<clipPath id="clip0_27666_1579">
<rect width="40" height="40" fill="white" transform="translate(0.5)"/>
</clipPath>
</defs>
</svg>
