<svg width="40" height="40" viewBox="0 0 32 32" fill="none" xmlns="http://www.w3.org/2000/svg">
<rect width="40" height="40" fill="#873EFF"/>
<g clip-path="url(#clip0_27666_1565)">
<path fill-rule="evenodd" clip-rule="evenodd" d="M14.1176 13C13.5556 13 13.1895 13.183 12.8627 13.7974L11.3725 16.6078V14.1111C11.3725 13.366 11.0196 13 10.366 13C9.71242 13 9.43791 13.2222 9.11111 13.8497L7.69935 16.6078V14.1373C7.69935 13.3399 7.37255 13 6.57516 13H4.95425C4.33987 13 4 13.2876 4 13.8105C4 14.3333 4.3268 14.6471 4.9281 14.6471H5.59477V17.7974C5.59477 18.6863 6.19608 19.2092 7.05882 19.2092C7.92157 19.2092 8.31373 18.8693 8.7451 18.0719L9.68627 16.3072V17.7974C9.68627 18.6732 10.2614 19.2092 11.1373 19.2092C12.0131 19.2092 12.3399 18.9085 12.8366 18.0719L15.0065 14.4118C15.4771 13.6144 15.1503 13 14.1046 13C14.1046 13 14.1046 13 14.1176 13Z" fill="white"/>
<path fill-rule="evenodd" clip-rule="evenodd" d="M18.1964 13C16.4187 13 15.0723 14.3203 15.0723 16.1111C15.0723 17.902 16.4317 19.2092 18.1964 19.2092C19.9612 19.2092 21.3076 17.8889 21.3206 16.1111C21.3206 14.3203 19.9612 13 18.1964 13ZM18.1964 17.3007C17.5298 17.3007 17.0723 16.8039 17.0723 16.1111C17.0723 15.4183 17.5298 14.9085 18.1964 14.9085C18.8631 14.9085 19.3206 15.4183 19.3206 16.1111C19.3206 16.8039 18.8762 17.3007 18.1964 17.3007Z" fill="white"/>
<path fill-rule="evenodd" clip-rule="evenodd" d="M24.8761 13C23.1114 13 21.752 14.3203 21.752 16.1111C21.752 17.902 23.1114 19.2092 24.8761 19.2092C26.6408 19.2092 28.0003 17.8889 28.0003 16.1111C28.0003 14.3333 26.6408 13 24.8761 13ZM24.8761 17.3007C24.1964 17.3007 23.765 16.8039 23.765 16.1111C23.765 15.4183 24.2095 14.9085 24.8761 14.9085C25.5428 14.9085 26.0003 15.4183 26.0003 16.1111C26.0003 16.8039 25.5559 17.3007 24.8761 17.3007Z" fill="white"/>
</g>
<defs>
<clipPath id="clip0_27666_1565">
<rect width="24" height="6.20915" fill="white" transform="translate(4 13)"/>
</clipPath>
</defs>
</svg>
