<svg width="32" height="32" viewBox="0 0 32 32" fill="none" xmlns="http://www.w3.org/2000/svg">
<g clip-path="url(#clip0_8393_33958)">
<path d="M24 0C28.4183 0 32 3.58172 32 8V24C32 28.4183 28.4183 32 24 32H8C3.58172 32 0 28.4183 0 24V8C0 3.58172 3.58172 0 8 0H24Z" fill="url(#paint0_linear_8393_33958)"/>
<path d="M17 5.00047C17.5523 5.00047 18 5.44819 18 6.00047C17.9997 6.55254 17.5521 7.00047 17 7.00047H9C7.89543 7.00047 7 7.8959 7 9.00047V23.0005C7.00026 24.1048 7.89559 25.0005 9 25.0005H23C24.1044 25.0005 24.9997 24.1048 25 23.0005V14.0005C25 13.4482 25.4477 13.0005 26 13.0005C26.5523 13.0005 27 13.4482 27 14.0005V23.0005C26.9997 25.2094 25.209 27.0005 23 27.0005H9C6.79102 27.0005 5.00026 25.2094 5 23.0005V9.00047C5 6.79133 6.79086 5.00047 9 5.00047H17Z" fill="white"/>
<path d="M12.1572 12.3257C12.5502 11.7089 13.4517 11.7089 13.8447 12.3257L17.4473 17.9868L18.6768 16.1987C19.0741 15.6212 19.9278 15.6212 20.3252 16.1987L22.8242 19.8325C22.9388 19.9992 23 20.1976 23 20.3999V22.0005C22.9738 22.5512 22.5593 22.9738 22 23.0005H10C9.43555 23.0005 9.02581 22.5425 9 22.0005V17.5776C9 17.3875 9.05417 17.2009 9.15625 17.0405L12.1572 12.3257Z" fill="white"/>
<path d="M22.5469 3.63524C22.6882 3.43742 22.9997 3.5368 23 3.77977V7.75047C23.0003 7.88832 23.1121 8.00047 23.25 8.00047H25.0283C25.4349 8.00047 25.6717 8.45959 25.4355 8.79051L21.4531 14.3647C21.3118 14.5626 21.0003 14.4632 21 14.2202V10.2505C21 10.1124 20.8881 10.0005 20.75 10.0005H18.9717C18.5651 10.0005 18.3283 9.54038 18.5645 9.20946L22.5469 3.63524Z" fill="white"/>
</g>
<defs>
<linearGradient id="paint0_linear_8393_33958" x1="16" y1="0" x2="16" y2="32" gradientUnits="userSpaceOnUse">
<stop stop-color="#8C80D3"/>
<stop offset="1" stop-color="#6791E0"/>
</linearGradient>
<clipPath id="clip0_8393_33958">
<rect width="32" height="32" fill="white"/>
</clipPath>
</defs>
</svg>
