<svg width="32" height="32" viewBox="0 0 32 32" fill="none" xmlns="http://www.w3.org/2000/svg">
<g clip-path="url(#clip0_3996_22615)">
<path d="M4.30006 -1.62572e-05C3.73426 -0.00399313 3.17332 0.104167 2.64983 0.31818C2.12633 0.532192 1.65072 0.847788 1.25063 1.24663C0.850555 1.64547 0.533974 2.1196 0.319294 2.64147C0.104615 3.16333 -0.00388312 3.72253 0.000106142 4.28656V27.6135C0.00487903 28.7582 0.456346 29.8562 1.25892 30.6748C2.0615 31.4936 3.15218 31.9687 4.30006 31.9998H27.6998C28.2655 32.0038 28.8265 31.8956 29.35 31.6816C29.8735 31.4675 30.3491 31.152 30.7492 30.7532C31.1492 30.3543 31.4658 29.8802 31.6805 29.3583C31.8952 28.8365 32.0037 28.2772 31.9997 27.7132V4.28656C32.0063 3.73018 31.9029 3.17794 31.6954 2.6614C31.4879 2.14485 31.1804 1.67411 30.7904 1.27605C30.4003 0.878001 29.9355 0.560432 29.4224 0.341483C28.9092 0.122532 28.3578 0.00649097 27.7998 -1.62572e-05H4.30006Z" fill="#1D1D1D"/>
<g opacity="0.05">
<path d="M8.60865 16.0873C8.57924 16.1143 8.54851 16.1439 8.51641 16.1763C7.68273 17.0177 2.03224 24.683 4.71854 27.3005C6.57546 29.1098 11.1323 27.2564 15.8803 23.5001C18.2333 25.5999 24.7769 29.6805 27.228 27.207C29.4204 24.9945 26.559 19.765 23.4484 15.9893C26.5589 12.2136 29.4202 6.98424 27.2278 4.77176C24.7544 2.27563 18.1134 6.45388 15.8168 8.53561C11.0918 4.85273 6.5673 2.99966 4.71868 4.86522C2.03238 7.57615 7.77551 15.148 8.51655 15.9893C8.54809 16.0252 8.57879 16.0577 8.60865 16.0873ZM8.14567 8.32406C8.14938 8.17833 8.15264 8.03813 8.15541 7.9033C9.51071 8.12741 11.4341 9.35004 13.3967 10.8825C12.3683 11.8719 11.2746 12.9254 10.5543 13.6524C10.5543 13.6991 10.5776 13.7461 10.6007 13.7928C9.14216 11.8618 8.10488 9.92974 8.14567 8.32406ZM10.5426 18.2207C11.009 18.6908 12.3384 20.0289 13.5626 21.2463C11.4416 22.9192 9.34897 24.2536 7.95036 24.3825C7.73484 23.9097 8.28569 21.1248 10.5426 18.2207ZM24.2163 24.1436C23.6765 24.3298 20.9652 23.7559 18.1396 21.5802C19.2268 20.5917 20.3032 19.5181 21.3385 18.3803C22.8941 20.3007 24.4237 22.5141 24.2163 24.1436ZM21.4723 13.7641C20.4556 12.6637 19.3977 11.6183 18.3277 10.6498C20.2645 9.15938 22.1969 8.09549 23.8006 8.13699C23.9745 8.14149 24.1405 8.14534 24.2988 8.14848C24.6511 9.84835 23.0655 11.9006 21.4723 13.7641ZM15.7567 12.8436C17.0774 13.9997 18.3146 15.1711 19.2931 16.1295C18.3135 17.0891 17.0745 18.2621 15.7521 19.4195C14.7138 18.4122 13.5703 17.2666 12.4924 16.0677C13.4737 15.0547 14.5879 13.9252 15.7567 12.8436Z" fill="white"/>
</g>
<path d="M14.5004 7.40002C12.236 7.40002 10.4004 9.23566 10.4004 11.5C10.4004 13.7644 12.236 15.6 14.5004 15.6C16.7648 15.6 18.6004 13.7644 18.6004 11.5C18.6004 9.23566 16.7648 7.40002 14.5004 7.40002ZM11.6004 11.5C11.6004 9.8984 12.8988 8.60002 14.5004 8.60002C16.102 8.60002 17.4004 9.8984 17.4004 11.5C17.4004 13.1017 16.102 14.4 14.5004 14.4C12.8988 14.4 11.6004 13.1017 11.6004 11.5Z" fill="white"/>
<path d="M8.00065 22C8.58898 22.1177 8.58893 22.118 8.58887 22.1183L8.58993 22.1134C8.59125 22.1073 8.5936 22.0968 8.59708 22.0821C8.60405 22.0527 8.61554 22.0066 8.63235 21.9462C8.66603 21.8254 8.72083 21.6482 8.80313 21.4336C8.96832 21.0027 9.2408 20.43 9.66832 19.86C10.5102 18.7375 11.9674 17.6 14.5006 17.6C16.291 17.6 17.5439 18.1682 18.4219 18.8977C18.4581 18.7706 18.5044 18.6463 18.5605 18.5259L18.9171 17.7613C17.8664 16.9778 16.4323 16.4 14.5006 16.4C11.5344 16.4 9.74153 17.7625 8.70834 19.14C8.1983 19.82 7.87694 20.4973 7.68267 21.0039C7.58524 21.258 7.51892 21.4715 7.4764 21.6241C7.45512 21.7005 7.43974 21.7618 7.42937 21.8056C7.42418 21.8275 7.42024 21.8451 7.41743 21.8579L7.41406 21.8737L7.41299 21.8789L7.4126 21.8808C7.41253 21.8812 7.41231 21.8823 8.00065 22Z" fill="white"/>
<path d="M20.3482 21.7907C20.3829 21.8069 20.4185 21.8206 20.4545 21.8316C20.7068 21.9087 20.9838 21.8595 21.1953 21.6942L21.4802 21.4715C21.4802 21.4714 21.4802 21.4715 21.4802 21.4715L22.3484 20.7929C22.4727 20.6958 22.5722 20.5706 22.6389 20.4276L25.0886 15.1742C25.322 14.6737 25.1054 14.0787 24.6049 13.8453L23.6986 13.4227C23.198 13.1893 22.6031 13.4058 22.3697 13.9063L19.9199 19.1598C19.8533 19.3027 19.8214 19.4594 19.8269 19.6171L19.8777 21.0797C19.8883 21.3864 20.0701 21.6611 20.3482 21.7907C20.3482 21.7907 20.3482 21.7907 20.3482 21.7907Z" fill="white"/>
</g>
<defs>
<clipPath id="clip0_3996_22615">
<rect width="32" height="32" fill="white"/>
</clipPath>
</defs>
</svg>
