<svg width="32" height="32" viewBox="0 0 32 32" fill="none" xmlns="http://www.w3.org/2000/svg">
<g clip-path="url(#clip0_3996_22662)">
<path d="M4.30006 -1.62572e-05C3.73426 -0.00399313 3.17332 0.104167 2.64983 0.31818C2.12633 0.532192 1.65072 0.847788 1.25063 1.24663C0.850555 1.64547 0.533974 2.1196 0.319294 2.64147C0.104615 3.16333 -0.00388312 3.72253 0.000106142 4.28656V27.6135C0.00487903 28.7582 0.456346 29.8562 1.25892 30.6748C2.0615 31.4936 3.15218 31.9687 4.30006 31.9998H27.6998C28.2655 32.0038 28.8265 31.8956 29.35 31.6816C29.8735 31.4675 30.3491 31.152 30.7492 30.7532C31.1492 30.3543 31.4658 29.8802 31.6805 29.3583C31.8952 28.8365 32.0037 28.2772 31.9997 27.7132V4.28656C32.0063 3.73018 31.9029 3.17794 31.6954 2.6614C31.4879 2.14485 31.1804 1.67411 30.7904 1.27605C30.4003 0.878001 29.9355 0.560432 29.4224 0.341483C28.9092 0.122532 28.3578 0.00649097 27.7998 -1.62572e-05H4.30006Z" fill="#1D1D1D"/>
<g opacity="0.05">
<path d="M8.60865 16.0873C8.57924 16.1143 8.54851 16.1439 8.51641 16.1763C7.68273 17.0177 2.03224 24.683 4.71854 27.3005C6.57546 29.1098 11.1323 27.2564 15.8803 23.5001C18.2333 25.5999 24.7769 29.6805 27.228 27.207C29.4204 24.9945 26.559 19.765 23.4484 15.9893C26.5589 12.2136 29.4202 6.98424 27.2278 4.77176C24.7544 2.27563 18.1134 6.45388 15.8168 8.53561C11.0918 4.85273 6.5673 2.99966 4.71868 4.86522C2.03238 7.57615 7.77551 15.148 8.51655 15.9893C8.54809 16.0252 8.57879 16.0577 8.60865 16.0873ZM8.14567 8.32406C8.14938 8.17833 8.15264 8.03813 8.15541 7.9033C9.51071 8.12741 11.4341 9.35004 13.3967 10.8825C12.3683 11.8719 11.2746 12.9254 10.5543 13.6524C10.5543 13.6991 10.5776 13.7461 10.6007 13.7928C9.14216 11.8618 8.10488 9.92974 8.14567 8.32406ZM10.5426 18.2207C11.009 18.6908 12.3384 20.0289 13.5626 21.2463C11.4416 22.9192 9.34897 24.2536 7.95036 24.3825C7.73484 23.9097 8.28569 21.1248 10.5426 18.2207ZM24.2163 24.1436C23.6765 24.3298 20.9652 23.7559 18.1396 21.5802C19.2268 20.5917 20.3032 19.5181 21.3385 18.3803C22.8941 20.3007 24.4237 22.5141 24.2163 24.1436ZM21.4723 13.7641C20.4556 12.6637 19.3977 11.6183 18.3277 10.6498C20.2645 9.15938 22.1969 8.09549 23.8006 8.13699C23.9745 8.14149 24.1405 8.14534 24.2988 8.14848C24.6511 9.84835 23.0655 11.9006 21.4723 13.7641ZM15.7567 12.8436C17.0774 13.9997 18.3146 15.1711 19.2931 16.1295C18.3135 17.0891 17.0745 18.2621 15.7521 19.4195C14.7138 18.4122 13.5703 17.2666 12.4924 16.0677C13.4737 15.0547 14.5879 13.9252 15.7567 12.8436Z" fill="white"/>
</g>
<path d="M8.3808 5.90636L5.93109 11.1598C5.86443 11.3027 5.83253 11.4594 5.83801 11.6171L5.88881 13.0797C5.89946 13.3864 6.08125 13.6611 6.35932 13.7907C6.63738 13.9204 6.96468 13.8831 7.20642 13.6941L8.35952 12.7929C8.48381 12.6958 8.58335 12.5706 8.65002 12.4276L11.0997 7.17421C11.3331 6.67367 11.1166 6.07869 10.616 5.84528L9.70973 5.42267C9.20919 5.18926 8.61421 5.40582 8.3808 5.90636Z" fill="white"/>
<path d="M7.99995 14.9707V25H25V8.00005H12.3697L10.9708 11H23.8V23.8H9.19995V14.0398L8.13013 14.876C8.08764 14.9092 8.04422 14.9408 7.99995 14.9707Z" fill="white"/>
<path d="M14.5895 19.352C14.5895 19.5654 14.6402 19.728 14.7415 19.84C14.8482 19.9467 15.0188 20 15.2535 20H18.0375C18.2348 20 18.3842 19.9494 18.4855 19.848C18.5922 19.7414 18.6455 19.592 18.6455 19.4C18.6455 19.208 18.5922 19.0614 18.4855 18.96C18.3842 18.8587 18.2348 18.808 18.0375 18.808H16.4341L17.3575 17.896C17.6028 17.656 17.7975 17.4294 17.9415 17.216C18.0908 17.0027 18.1975 16.7894 18.2615 16.576C18.3308 16.3627 18.3655 16.144 18.3655 15.92C18.3655 15.5627 18.2882 15.264 18.1335 15.024C17.9788 14.7787 17.7522 14.592 17.4535 14.464C17.1602 14.336 16.7948 14.272 16.3575 14.272C16.0908 14.272 15.8242 14.3014 15.5575 14.36C15.2962 14.4187 15.0428 14.5147 14.7975 14.648C14.6588 14.7227 14.5628 14.8187 14.5095 14.936C14.4562 15.048 14.4375 15.1627 14.4535 15.28C14.4748 15.3974 14.5228 15.5014 14.5975 15.592C14.6775 15.6827 14.7735 15.7414 14.8855 15.768C15.0028 15.7947 15.1335 15.776 15.2775 15.712C15.4428 15.6267 15.5975 15.568 15.7415 15.536C15.8855 15.4987 16.0215 15.48 16.1495 15.48C16.4002 15.48 16.5922 15.5307 16.7255 15.632C16.8588 15.7334 16.9255 15.8854 16.9255 16.088C16.9255 16.248 16.8802 16.408 16.7895 16.568C16.7042 16.728 16.5575 16.92 16.3495 17.144L14.9495 18.608C14.8428 18.72 14.7548 18.8347 14.6855 18.952C14.6215 19.0694 14.5895 19.2027 14.5895 19.352Z" fill="white"/>
</g>
<defs>
<clipPath id="clip0_3996_22662">
<rect width="32" height="32" fill="white"/>
</clipPath>
</defs>
</svg>
