<svg width="32" height="32" viewBox="0 0 32 32" fill="none" xmlns="http://www.w3.org/2000/svg">
<g clip-path="url(#clip0_3996_22682)">
<path d="M4.30006 -1.62572e-05C3.73426 -0.00399313 3.17332 0.104167 2.64983 0.31818C2.12633 0.532192 1.65072 0.847788 1.25063 1.24663C0.850555 1.64547 0.533974 2.1196 0.319294 2.64147C0.104615 3.16333 -0.00388312 3.72253 0.000106142 4.28656V27.6135C0.00487903 28.7582 0.456346 29.8562 1.25892 30.6748C2.0615 31.4936 3.15218 31.9687 4.30006 31.9998H27.6998C28.2655 32.0038 28.8265 31.8956 29.35 31.6816C29.8735 31.4675 30.3491 31.152 30.7492 30.7532C31.1492 30.3543 31.4658 29.8802 31.6805 29.3583C31.8952 28.8365 32.0037 28.2772 31.9997 27.7132V4.28656C32.0063 3.73018 31.9029 3.17794 31.6954 2.6614C31.4879 2.14485 31.1804 1.67411 30.7904 1.27605C30.4003 0.878001 29.9355 0.560432 29.4224 0.341483C28.9092 0.122532 28.3578 0.00649097 27.7998 -1.62572e-05H4.30006Z" fill="#1D1D1D"/>
<g opacity="0.05">
<path d="M8.60865 16.0873C8.57924 16.1143 8.54851 16.1439 8.51641 16.1763C7.68273 17.0177 2.03224 24.683 4.71854 27.3005C6.57546 29.1098 11.1323 27.2564 15.8803 23.5001C18.2333 25.5999 24.7769 29.6805 27.228 27.207C29.4204 24.9945 26.559 19.765 23.4484 15.9893C26.5589 12.2136 29.4202 6.98424 27.2278 4.77176C24.7544 2.27563 18.1134 6.45388 15.8168 8.53561C11.0918 4.85273 6.5673 2.99966 4.71868 4.86522C2.03238 7.57615 7.77551 15.148 8.51655 15.9893C8.54809 16.0252 8.57879 16.0577 8.60865 16.0873ZM8.14567 8.32406C8.14938 8.17833 8.15264 8.03813 8.15541 7.9033C9.51071 8.12741 11.4341 9.35004 13.3967 10.8825C12.3683 11.8719 11.2746 12.9254 10.5543 13.6524C10.5543 13.6991 10.5776 13.7461 10.6007 13.7928C9.14216 11.8618 8.10488 9.92974 8.14567 8.32406ZM10.5426 18.2207C11.009 18.6908 12.3384 20.0289 13.5626 21.2463C11.4416 22.9192 9.34897 24.2536 7.95036 24.3825C7.73484 23.9097 8.28569 21.1248 10.5426 18.2207ZM24.2163 24.1436C23.6765 24.3298 20.9652 23.7559 18.1396 21.5802C19.2268 20.5917 20.3032 19.5181 21.3385 18.3803C22.8941 20.3007 24.4237 22.5141 24.2163 24.1436ZM21.4723 13.7641C20.4556 12.6637 19.3977 11.6183 18.3277 10.6498C20.2645 9.15938 22.1969 8.09549 23.8006 8.13699C23.9745 8.14149 24.1405 8.14534 24.2988 8.14848C24.6511 9.84835 23.0655 11.9006 21.4723 13.7641ZM15.7567 12.8436C17.0774 13.9997 18.3146 15.1711 19.2931 16.1295C18.3135 17.0891 17.0745 18.2621 15.7521 19.4195C14.7138 18.4122 13.5703 17.2666 12.4924 16.0677C13.4737 15.0547 14.5879 13.9252 15.7567 12.8436Z" fill="white"/>
</g>
<path d="M8.3808 7.90636L5.93109 13.1598C5.92065 13.1822 5.91106 13.2049 5.90234 13.2279C5.90157 13.2299 5.9008 13.232 5.90005 13.234C5.85464 13.3562 5.83346 13.4863 5.83801 13.6171L5.88881 15.0797C5.8901 15.1168 5.89389 15.1534 5.90005 15.1894C5.94483 15.4507 6.11488 15.6768 6.35932 15.7907C6.58524 15.8961 6.84368 15.8912 7.06231 15.7843C7.07503 15.7781 7.08761 15.7716 7.10005 15.7646C7.13694 15.7442 7.17252 15.7206 7.20642 15.6941L8.35952 14.7929C8.48381 14.6958 8.58335 14.5706 8.65002 14.4276L11.0997 9.17421C11.3331 8.67367 11.1166 8.07869 10.616 7.84528L9.70973 7.42267C9.20919 7.18926 8.61421 7.40582 8.3808 7.90636Z" fill="white"/>
<path d="M5.90005 19.5001C5.90005 20.3838 6.61639 21.1001 7.50005 21.1001H21.1431C21.5124 21.1001 21.8704 20.9723 22.1563 20.7385L26.434 17.2385C27.2165 16.5983 27.2165 15.402 26.434 14.7618L22.1563 11.2618C21.8704 11.0279 21.5124 10.9001 21.1431 10.9001H11.95L11.3904 12.1001H21.1431C21.2354 12.1001 21.3249 12.1321 21.3964 12.1905L25.6742 15.6905C25.8698 15.8506 25.8698 16.1497 25.6742 16.3097L21.3964 19.8097C21.3249 19.8682 21.2354 19.9001 21.1431 19.9001H7.50005C7.27913 19.9001 7.10005 19.721 7.10005 19.5001V17.3331C6.70253 17.402 6.28836 17.367 5.90005 17.2231V19.5001Z" fill="white"/>
<path d="M9.00014 17.0001H18.0001V15.0001H10.0381L10.0095 15.0616C9.84281 15.419 9.59395 15.7319 9.28323 15.9747L9.00014 16.196V17.0001Z" fill="white"/>
<path d="M21.0001 17.0001C21.5524 17.0001 22.0001 16.5524 22.0001 16.0001C22.0001 15.4478 21.5524 15.0001 21.0001 15.0001C20.4479 15.0001 20.0001 15.4478 20.0001 16.0001C20.0001 16.5524 20.4479 17.0001 21.0001 17.0001Z" fill="white"/>
</g>
<defs>
<clipPath id="clip0_3996_22682">
<rect width="32" height="32" fill="white"/>
</clipPath>
</defs>
</svg>
