<svg width="32" height="32" viewBox="0 0 32 32" fill="none" xmlns="http://www.w3.org/2000/svg">
<g clip-path="url(#clip0_3996_22638)">
<path d="M4.30006 -1.62572e-05C3.73426 -0.00399313 3.17332 0.104167 2.64983 0.31818C2.12633 0.532192 1.65072 0.847788 1.25063 1.24663C0.850555 1.64547 0.533974 2.1196 0.319294 2.64147C0.104615 3.16333 -0.00388312 3.72253 0.000106142 4.28656V27.6135C0.00487903 28.7582 0.456346 29.8562 1.25892 30.6748C2.0615 31.4936 3.15218 31.9687 4.30006 31.9998H27.6998C28.2655 32.0038 28.8265 31.8956 29.35 31.6816C29.8735 31.4675 30.3491 31.152 30.7492 30.7532C31.1492 30.3543 31.4658 29.8802 31.6805 29.3583C31.8952 28.8365 32.0037 28.2772 31.9997 27.7132V4.28656C32.0063 3.73018 31.9029 3.17794 31.6954 2.6614C31.4879 2.14485 31.1804 1.67411 30.7904 1.27605C30.4003 0.878001 29.9355 0.560432 29.4224 0.341483C28.9092 0.122532 28.3578 0.00649097 27.7998 -1.62572e-05H4.30006Z" fill="#1D1D1D"/>
<g opacity="0.05">
<path d="M8.60865 16.0873C8.57924 16.1143 8.54851 16.1439 8.51641 16.1763C7.68273 17.0177 2.03224 24.683 4.71854 27.3005C6.57546 29.1098 11.1323 27.2564 15.8803 23.5001C18.2333 25.5999 24.7769 29.6805 27.228 27.207C29.4204 24.9945 26.559 19.765 23.4484 15.9893C26.5589 12.2136 29.4202 6.98424 27.2278 4.77176C24.7544 2.27563 18.1134 6.45388 15.8168 8.53561C11.0918 4.85273 6.5673 2.99966 4.71868 4.86522C2.03238 7.57615 7.77551 15.148 8.51655 15.9893C8.54809 16.0252 8.57879 16.0577 8.60865 16.0873ZM8.14567 8.32406C8.14938 8.17833 8.15264 8.03813 8.15541 7.9033C9.51071 8.12741 11.4341 9.35004 13.3967 10.8825C12.3683 11.8719 11.2746 12.9254 10.5543 13.6524C10.5543 13.6991 10.5776 13.7461 10.6007 13.7928C9.14216 11.8618 8.10488 9.92974 8.14567 8.32406ZM10.5426 18.2207C11.009 18.6908 12.3384 20.0289 13.5626 21.2463C11.4416 22.9192 9.34897 24.2536 7.95036 24.3825C7.73484 23.9097 8.28569 21.1248 10.5426 18.2207ZM24.2163 24.1436C23.6765 24.3298 20.9652 23.7559 18.1396 21.5802C19.2268 20.5917 20.3032 19.5181 21.3385 18.3803C22.8941 20.3007 24.4237 22.5141 24.2163 24.1436ZM21.4723 13.7641C20.4556 12.6637 19.3977 11.6183 18.3277 10.6498C20.2645 9.15938 22.1969 8.09549 23.8006 8.13699C23.9745 8.14149 24.1405 8.14534 24.2988 8.14848C24.6511 9.84835 23.0655 11.9006 21.4723 13.7641ZM15.7567 12.8436C17.0774 13.9997 18.3146 15.1711 19.2931 16.1295C18.3135 17.0891 17.0745 18.2621 15.7521 19.4195C14.7138 18.4122 13.5703 17.2666 12.4924 16.0677C13.4737 15.0547 14.5879 13.9252 15.7567 12.8436Z" fill="white"/>
</g>
<path d="M16.088 8C13.8237 8 11.988 9.83563 11.988 12.1C11.988 14.3644 13.8237 16.2 16.088 16.2C18.3524 16.2 20.188 14.3644 20.188 12.1C20.188 9.83563 18.3524 8 16.088 8ZM13.188 12.1C13.188 10.4984 14.4864 9.2 16.088 9.2C17.6897 9.2 18.988 10.4984 18.988 12.1C18.988 13.7016 17.6897 15 16.088 15C14.4864 15 13.188 13.7016 13.188 12.1Z" fill="white"/>
<path d="M9.58829 22.6C10.1766 22.7177 10.1766 22.718 10.1765 22.7183L10.1776 22.7133C10.1789 22.7073 10.1812 22.6968 10.1847 22.6821C10.1917 22.6526 10.2032 22.6065 10.22 22.5462C10.2537 22.4254 10.3085 22.2482 10.3908 22.0335C10.556 21.6027 10.8284 21.03 11.256 20.46C12.0979 19.3375 13.555 18.2 16.0883 18.2C18.6216 18.2 20.0787 19.3375 20.9206 20.46C21.3481 21.03 21.6206 21.6027 21.7858 22.0335C21.8681 22.2482 21.9229 22.4254 21.9566 22.5462C21.9734 22.6065 21.9849 22.6526 21.9919 22.6821C21.9953 22.6968 21.9977 22.7073 21.999 22.7133L22.0001 22.7183C22 22.718 22 22.7177 22.5883 22.6C23.1766 22.4823 23.1766 22.4819 23.1765 22.4816L23.176 22.4789L23.1749 22.4737L23.1715 22.4579C23.1687 22.445 23.1648 22.4275 23.1596 22.4056C23.1492 22.3618 23.1338 22.3004 23.1125 22.2241C23.07 22.0715 23.0037 21.858 22.9063 21.6039C22.712 21.0972 22.3906 20.42 21.8806 19.74C20.8474 18.3625 19.0545 17 16.0883 17C13.122 17 11.3292 18.3625 10.296 19.74C9.78595 20.42 9.46458 21.0972 9.27032 21.6039C9.17289 21.858 9.10657 22.0715 9.06404 22.2241C9.04276 22.3004 9.02738 22.3618 9.01701 22.4056C9.01182 22.4275 9.00788 22.445 9.00508 22.4579L9.00171 22.4737L9.00063 22.4789L9.00025 22.4808C9.00018 22.4811 8.99995 22.4823 9.58829 22.6Z" fill="white"/>
</g>
<defs>
<clipPath id="clip0_3996_22638">
<rect width="32" height="32" fill="white"/>
</clipPath>
</defs>
</svg>
