<svg width="32" height="32" viewBox="0 0 32 32" fill="none" xmlns="http://www.w3.org/2000/svg">
<g clip-path="url(#clip0_3996_22674)">
<path d="M4.30006 -1.62572e-05C3.73426 -0.00399313 3.17332 0.104167 2.64983 0.31818C2.12633 0.532192 1.65072 0.847788 1.25063 1.24663C0.850555 1.64547 0.533974 2.1196 0.319294 2.64147C0.104615 3.16333 -0.00388312 3.72253 0.000106142 4.28656V27.6135C0.00487903 28.7582 0.456346 29.8562 1.25892 30.6748C2.0615 31.4936 3.15218 31.9687 4.30006 31.9998H27.6998C28.2655 32.0038 28.8265 31.8956 29.35 31.6816C29.8735 31.4675 30.3491 31.152 30.7492 30.7532C31.1492 30.3543 31.4658 29.8802 31.6805 29.3583C31.8952 28.8365 32.0037 28.2772 31.9997 27.7132V4.28656C32.0063 3.73018 31.9029 3.17794 31.6954 2.6614C31.4879 2.14485 31.1804 1.67411 30.7904 1.27605C30.4003 0.878001 29.9355 0.560432 29.4224 0.341483C28.9092 0.122532 28.3578 0.00649097 27.7998 -1.62572e-05H4.30006Z" fill="#1D1D1D"/>
<g opacity="0.05">
<path d="M8.60865 16.0873C8.57924 16.1143 8.54851 16.1439 8.51641 16.1763C7.68273 17.0177 2.03224 24.683 4.71854 27.3005C6.57546 29.1098 11.1323 27.2564 15.8803 23.5001C18.2333 25.5999 24.7769 29.6805 27.228 27.207C29.4204 24.9945 26.559 19.765 23.4484 15.9893C26.5589 12.2136 29.4202 6.98424 27.2278 4.77176C24.7544 2.27563 18.1134 6.45388 15.8168 8.53561C11.0918 4.85273 6.5673 2.99966 4.71868 4.86522C2.03238 7.57615 7.77551 15.148 8.51655 15.9893C8.54809 16.0252 8.57879 16.0577 8.60865 16.0873ZM8.14567 8.32406C8.14938 8.17833 8.15264 8.03813 8.15541 7.9033C9.51071 8.12741 11.4341 9.35004 13.3967 10.8825C12.3683 11.8719 11.2746 12.9254 10.5543 13.6524C10.5543 13.6991 10.5776 13.7461 10.6007 13.7928C9.14216 11.8618 8.10488 9.92974 8.14567 8.32406ZM10.5426 18.2207C11.009 18.6908 12.3384 20.0289 13.5626 21.2463C11.4416 22.9192 9.34897 24.2536 7.95036 24.3825C7.73484 23.9097 8.28569 21.1248 10.5426 18.2207ZM24.2163 24.1436C23.6765 24.3298 20.9652 23.7559 18.1396 21.5802C19.2268 20.5917 20.3032 19.5181 21.3385 18.3803C22.8941 20.3007 24.4237 22.5141 24.2163 24.1436ZM21.4723 13.7641C20.4556 12.6637 19.3977 11.6183 18.3277 10.6498C20.2645 9.15938 22.1969 8.09549 23.8006 8.13699C23.9745 8.14149 24.1405 8.14534 24.2988 8.14848C24.6511 9.84835 23.0655 11.9006 21.4723 13.7641ZM15.7567 12.8436C17.0774 13.9997 18.3146 15.1711 19.2931 16.1295C18.3135 17.0891 17.0745 18.2621 15.7521 19.4195C14.7138 18.4122 13.5703 17.2666 12.4924 16.0677C13.4737 15.0547 14.5879 13.9252 15.7567 12.8436Z" fill="white"/>
</g>
<path d="M16 20.2C18.3196 20.2 20.2 18.3196 20.2 16C20.2 13.6804 18.3196 11.8 16 11.8C13.6804 11.8 11.8 13.6804 11.8 16C11.8 18.3196 13.6804 20.2 16 20.2ZM19 16C19 17.6569 17.6569 19 16 19C14.3431 19 13 17.6569 13 16C13 14.3431 14.3431 13 16 13C17.6569 13 19 14.3431 19 16Z" fill="white"/>
<path d="M8.47813 13.2694C8.32443 13.6927 7.93727 14 7.48695 14C6.94187 14 6.5 14.4419 6.5 14.9869V17.0131C6.5 17.5581 6.94187 18 7.48695 18C7.93727 18 8.32443 18.3073 8.47813 18.7306C8.55936 18.9543 8.65029 19.1734 8.75041 19.3873C8.9414 19.7954 8.88497 20.2867 8.5664 20.6052C8.18088 20.9908 8.18088 21.6158 8.5664 22.0013L9.99871 23.4337C10.3842 23.8192 11.0093 23.8192 11.3948 23.4337C11.7134 23.1151 12.2047 23.0586 12.6128 23.2496C12.8266 23.3497 13.0457 23.4406 13.2694 23.5219C13.6927 23.6756 14 24.0627 14 24.5131C14 25.0581 14.4419 25.5 14.9869 25.5H17.0131C17.5581 25.5 18 25.0581 18 24.5131C18 24.0627 18.3073 23.6756 18.7306 23.5219C18.9543 23.4406 19.1734 23.3497 19.3873 23.2496C19.7954 23.0586 20.2867 23.115 20.6053 23.4336C20.9909 23.8192 21.616 23.8192 22.0015 23.4336L23.4337 22.0014C23.8193 21.6159 23.8193 20.9908 23.4337 20.6052C23.1151 20.2866 23.0587 19.7952 23.2497 19.3872C23.3498 19.1733 23.4407 18.9543 23.5219 18.7306C23.6756 18.3073 24.0627 18 24.5131 18C25.0581 18 25.5 17.5581 25.5 17.0131V14.9869C25.5 14.4419 25.0581 14 24.5131 14C24.0627 14 23.6756 13.6927 23.5219 13.2694C23.4407 13.0457 23.3497 12.8267 23.2497 12.6128C23.0587 12.2047 23.1151 11.7134 23.4337 11.3948C23.8192 11.0092 23.8192 10.3841 23.4337 9.99857L22.0015 8.56636C21.6159 8.18081 20.9908 8.18081 20.6053 8.56636C20.2867 8.88495 19.7953 8.94138 19.3873 8.75039C19.1734 8.65028 18.9543 8.55936 18.7306 8.47813C18.3073 8.32443 18 7.93727 18 7.48695C18 6.94187 17.5581 6.5 17.0131 6.5H14.9869C14.4419 6.5 14 6.94187 14 7.48695C14 7.93727 13.6927 8.32443 13.2694 8.47813C13.0457 8.55935 12.8267 8.65026 12.6128 8.75037C12.2047 8.94134 11.7134 8.88491 11.3949 8.56634C11.0093 8.18082 10.3843 8.18082 9.99875 8.56634L8.56642 9.99867C8.1809 10.3842 8.1809 11.0092 8.56642 11.3948C8.88498 11.7133 8.94141 12.2046 8.75043 12.6126C8.6503 12.8266 8.55937 13.0456 8.47813 13.2694ZM13.6789 9.60607C14.4535 9.32484 15.102 8.61742 15.1899 7.7H16.8101C16.898 8.61742 17.5465 9.32484 18.3211 9.60607C18.5109 9.67502 18.6969 9.75222 18.8786 9.83724C19.6256 10.1869 20.5851 10.1452 21.2962 9.55817L22.4419 10.7038C21.8549 11.4149 21.8132 12.3744 22.1628 13.1215C22.2478 13.3031 22.325 13.4891 22.3939 13.6789C22.6752 14.4535 23.3826 15.102 24.3 15.1899V16.8101C23.3826 16.898 22.6752 17.5465 22.3939 18.3211C22.325 18.5109 22.2478 18.6969 22.1628 18.8785C21.8132 19.6256 21.8549 20.5851 22.4419 21.2962L21.2963 22.4418C20.5851 21.8548 19.6257 21.8131 18.8786 22.1628C18.6969 22.2478 18.511 22.325 18.3211 22.3939C17.5465 22.6752 16.898 23.3826 16.8101 24.3H15.1899C15.102 23.3826 14.4535 22.6752 13.6789 22.3939C13.4891 22.325 13.3031 22.2478 13.1214 22.1628C12.3744 21.8132 11.415 21.8549 10.7039 22.4418L9.55826 21.2961C10.1452 20.5851 10.1869 19.6256 9.83726 18.8786C9.75223 18.697 9.67503 18.511 9.60607 18.3211C9.32484 17.5465 8.61742 16.898 7.7 16.8101V15.1899C8.61742 15.102 9.32484 14.4535 9.60607 13.6789C9.67503 13.489 9.75224 13.303 9.83727 13.1213C10.1869 12.3744 10.1452 11.4149 9.55829 10.7039L10.704 9.5582C11.415 10.1451 12.3745 10.1868 13.1215 9.83722C13.3031 9.75221 13.4891 9.67502 13.6789 9.60607Z" fill="white"/>
</g>
<defs>
<clipPath id="clip0_3996_22674">
<rect width="32" height="32" fill="white"/>
</clipPath>
</defs>
</svg>
